<svg width="1440" height="535" viewBox="0 0 1440 535" fill="none" xmlns="http://www.w3.org/2000/svg">
<path d="M0 167.257V535H1440V153.965C1431.85 164.578 1426.23 167.979 1413.39 167.257V81.9669C1388.33 112.027 1370.83 120.903 1332.47 119.627V6.64596C1308.15 42.8362 1290.43 60.3391 1244.9 81.9669V0C1076.29 190.035 965.963 250.523 717.229 153.965C482.887 229.026 368.788 196.005 199.538 0L208.406 91.9358C151.093 79.3306 129.172 59.5269 104.203 6.64596L114.18 131.812C70.4408 121.416 50.445 110.755 24.388 81.9669V178.333C12.7632 178.08 7.14836 176.229 0 167.257Z" fill="#061818" fill-opacity="0.8"/>
</svg>
